<mxfile host="app.diagrams.net" agent="Mozilla/5.0 (Macintosh; Intel Mac OS X 10_15_7) AppleWebKit/605.1.15 (KHTML, like Gecko) Version/18.3.1 Safari/605.1.15" version="26.1.1">
  <diagram name="Page-1" id="74b105a0-9070-1c63-61bc-23e55f88626e">
    <mxGraphModel dx="1793" dy="1134" grid="1" gridSize="10" guides="1" tooltips="1" connect="1" arrows="1" fold="1" page="1" pageScale="1.5" pageWidth="1169" pageHeight="826" background="none" math="0" shadow="0">
      <root>
        <mxCell id="0" style=";html=1;" />
        <mxCell id="1" style=";html=1;" parent="0" />
        <mxCell id="10b056a9c633e61c-17" style="edgeStyle=orthogonalEdgeStyle;rounded=0;html=1;endArrow=block;endFill=1;jettySize=auto;orthogonalLoop=1;strokeWidth=2;startArrow=none;startFill=0;entryX=0;entryY=0.5;entryDx=0;entryDy=0;" parent="1" source="10b056a9c633e61c-4" target="hPG3qIheKun2OKlIEsBx-3" edge="1">
          <mxGeometry relative="1" as="geometry">
            <mxPoint x="610" y="525" as="targetPoint" />
          </mxGeometry>
        </mxCell>
        <mxCell id="10b056a9c633e61c-4" value="Developer" style="strokeWidth=2;dashed=0;align=center;fontSize=12;shape=rect;verticalLabelPosition=bottom;verticalAlign=top;fillColor=#c0f5a9" parent="1" vertex="1">
          <mxGeometry x="400" y="480" width="150" height="90" as="geometry" />
        </mxCell>
        <mxCell id="10b056a9c633e61c-30" value="Architecture Diagram - Quiz App API" style="text;strokeColor=none;fillColor=none;html=1;fontSize=24;fontStyle=1;verticalAlign=middle;align=center;" parent="1" vertex="1">
          <mxGeometry x="80" y="40" width="1590" height="40" as="geometry" />
        </mxCell>
        <mxCell id="hPG3qIheKun2OKlIEsBx-2" value="Push Code to Github" style="text;html=1;align=center;verticalAlign=middle;whiteSpace=wrap;rounded=0;" vertex="1" parent="1">
          <mxGeometry x="400" y="480" width="148" height="90" as="geometry" />
        </mxCell>
        <mxCell id="hPG3qIheKun2OKlIEsBx-3" value="" style="strokeWidth=2;dashed=0;align=center;fontSize=12;shape=rect;verticalLabelPosition=bottom;verticalAlign=top;fillColor=#c0f5a9" vertex="1" parent="1">
          <mxGeometry x="628" y="480" width="160" height="90" as="geometry" />
        </mxCell>
        <mxCell id="hPG3qIheKun2OKlIEsBx-9" style="edgeStyle=orthogonalEdgeStyle;rounded=0;orthogonalLoop=1;jettySize=auto;html=1;exitX=1;exitY=0.5;exitDx=0;exitDy=0;" edge="1" parent="1" source="hPG3qIheKun2OKlIEsBx-4">
          <mxGeometry relative="1" as="geometry">
            <mxPoint x="868" y="524.8333333333335" as="targetPoint" />
          </mxGeometry>
        </mxCell>
        <mxCell id="hPG3qIheKun2OKlIEsBx-4" value="Private Repo with Source Code, Dockerfile, tests, and CI Config" style="text;html=1;align=center;verticalAlign=middle;whiteSpace=wrap;rounded=0;" vertex="1" parent="1">
          <mxGeometry x="628" y="480" width="160" height="90" as="geometry" />
        </mxCell>
        <mxCell id="hPG3qIheKun2OKlIEsBx-8" value="Github Repository" style="text;html=1;align=center;verticalAlign=middle;resizable=0;points=[];autosize=1;strokeColor=none;fillColor=none;" vertex="1" parent="1">
          <mxGeometry x="648" y="570" width="120" height="30" as="geometry" />
        </mxCell>
        <mxCell id="hPG3qIheKun2OKlIEsBx-10" value="" style="strokeWidth=2;dashed=0;align=center;fontSize=12;shape=rect;verticalLabelPosition=bottom;verticalAlign=top;fillColor=#c0f5a9" vertex="1" parent="1">
          <mxGeometry x="868" y="480" width="160" height="90" as="geometry" />
        </mxCell>
        <mxCell id="hPG3qIheKun2OKlIEsBx-14" style="edgeStyle=orthogonalEdgeStyle;rounded=0;orthogonalLoop=1;jettySize=auto;html=1;exitX=1;exitY=0.5;exitDx=0;exitDy=0;entryX=0;entryY=0.5;entryDx=0;entryDy=0;" edge="1" parent="1" source="hPG3qIheKun2OKlIEsBx-11" target="hPG3qIheKun2OKlIEsBx-16">
          <mxGeometry relative="1" as="geometry">
            <mxPoint x="1108" y="524.8333333333335" as="targetPoint" />
          </mxGeometry>
        </mxCell>
        <mxCell id="hPG3qIheKun2OKlIEsBx-11" value="-Automated Testing&lt;div&gt;-Docker Image Build&lt;/div&gt;&lt;div&gt;-Push to Docker Hub&lt;/div&gt;" style="text;html=1;align=center;verticalAlign=middle;whiteSpace=wrap;rounded=0;" vertex="1" parent="1">
          <mxGeometry x="873" y="485" width="150" height="80" as="geometry" />
        </mxCell>
        <mxCell id="hPG3qIheKun2OKlIEsBx-12" value="Github Actions CI/CD" style="text;html=1;align=center;verticalAlign=middle;resizable=0;points=[];autosize=1;strokeColor=none;fillColor=none;" vertex="1" parent="1">
          <mxGeometry x="878" y="570" width="140" height="30" as="geometry" />
        </mxCell>
        <mxCell id="hPG3qIheKun2OKlIEsBx-16" value="" style="strokeWidth=2;dashed=0;align=center;fontSize=12;shape=rect;verticalLabelPosition=bottom;verticalAlign=top;fillColor=#c0f5a9" vertex="1" parent="1">
          <mxGeometry x="1110" y="480" width="160" height="90" as="geometry" />
        </mxCell>
        <mxCell id="hPG3qIheKun2OKlIEsBx-21" value="" style="edgeStyle=orthogonalEdgeStyle;rounded=0;orthogonalLoop=1;jettySize=auto;html=1;" edge="1" parent="1" source="hPG3qIheKun2OKlIEsBx-15" target="hPG3qIheKun2OKlIEsBx-20">
          <mxGeometry relative="1" as="geometry" />
        </mxCell>
        <mxCell id="hPG3qIheKun2OKlIEsBx-15" value="Amazon AWS EC2" style="text;html=1;align=center;verticalAlign=middle;whiteSpace=wrap;rounded=0;" vertex="1" parent="1">
          <mxGeometry x="1110" y="480" width="160" height="90" as="geometry" />
        </mxCell>
        <mxCell id="hPG3qIheKun2OKlIEsBx-20" value="User&amp;nbsp;" style="whiteSpace=wrap;html=1;" vertex="1" parent="1">
          <mxGeometry x="1365" y="495" width="120" height="60" as="geometry" />
        </mxCell>
      </root>
    </mxGraphModel>
  </diagram>
</mxfile>
